<svg xmlns="http://www.w3.org/2000/svg" viewBox="0 0 192 192" width="192" height="192">
  <defs>
    <linearGradient id="bg-gradient" x1="0%" y1="0%" x2="100%" y2="100%">
      <stop offset="0%" style="stop-color:#3b82f6"/>
      <stop offset="100%" style="stop-color:#8b5cf6"/>
    </linearGradient>
    <linearGradient id="moon-gradient" x1="0%" y1="0%" x2="100%" y2="100%">
      <stop offset="0%" style="stop-color:#fbbf24"/>
      <stop offset="100%" style="stop-color:#f59e0b"/>
    </linearGradient>
  </defs>
  <rect width="192" height="192" rx="40" fill="url(#bg-gradient)"/>
  <!-- Crescent Moon -->
  <path d="M96 32c-35.3 0-64 28.7-64 64s28.7 64 64 64c11.5 0 22.3-3 31.6-8.3-7.1 3.4-15 5.3-23.6 5.3-29.8 0-54-24.2-54-54s24.2-54 54-54c8.6 0 16.5 1.9 23.6 5.3C118.3 35 107.5 32 96 32z" fill="url(#moon-gradient)"/>
  <!-- Star -->
  <path d="M130 55l4 12.3h13l-10.5 7.6 4 12.3L130 79.6l-10.5 7.6 4-12.3-10.5-7.6h13z" fill="#fbbf24"/>
</svg>